General
Complete name                            : Jack The Giant Slayer (2013)CAM XVID MP3-BHOOM.avi
Format                                   : AVI
Format/Info                              : Audio Video Interleave
File size                                : 692 MiB
Duration                                 : 1h 43mn
Overall bit rate mode                    : Variable
Overall bit rate                         : 934 Kbps

Video
ID                                       : 0
Format                                   : MPEG-4 Visual
Format profile                           : Advanced Simple@L5
Format settings, BVOP                    : 2
Format settings, QPel                    : Yes
Format settings, GMC                     : No warppoints
Format settings, Matrix                  : Default (H.263)
Codec ID                                 : XVID
Codec ID/Hint                            : XviD
Duration                                 : 1h 43mn
Bit rate                                 : 801 Kbps
Width                                    : 672 pixels
Height                                   : 352 pixels
Display aspect ratio                     : 1.909
Frame rate                               : 29.970 fps
Color space                              : YUV
Chroma subsampling                       : 4:2:0
Bit depth                                : 8 bits
Scan type                                : Progressive
Compression mode                         : Lossy
Bits/(Pixel*Frame)                       : 0.113
Stream size                              : 593 MiB (86%)

Audio
ID                                       : 1
Format                                   : MPEG Audio
Format version                           : Version 1
Format profile                           : Layer 3
Mode                                     : Joint stereo
Mode extension                           : MS Stereo
Codec ID                                 : 55
Codec ID/Hint                            : MP3
Duration                                 : 1h 43mn
Bit rate mode                            : Variable
Bit rate                                 : 119 Kbps
Nominal bit rate                         : 128 Kbps
Channel(s)                               : 2 channels
Sampling rate                            : 48.0 KHz
Compression mode                         : Lossy
Stream size                              : 88.3 MiB (13%)
Alignment                                : Aligned on interleaves

Screens:
